<?xml version="1.0" standalone="no"?>
<svg viewBox="0 0 200 200" xmlns="http://www.w3.org/2000/svg">
  <path fill="#FF0066" d="M47.3,-57.1C62,-54.3,75.2,-41.5,78.9,-26.5C82.6,-11.5,76.7,5.8,71.4,23.5C66.1,41.3,61.3,59.5,49.5,67.3C37.7,75.1,18.8,72.5,3.9,67.1C-11,61.7,-22.1,53.6,-37.8,47.1C-53.5,40.6,-73.9,35.6,-75.1,25.8C-76.3,16.1,-58.3,1.5,-50.5,-14.5C-42.7,-30.6,-45.1,-48,-38.4,-53.5C-31.7,-58.9,-15.9,-52.2,0.2,-52.5C16.3,-52.7,32.5,-59.9,47.3,-57.1Z" transform="translate(100 100)" />
</svg>
