<?xml version="1.0" standalone="no"?>
<svg viewBox="0 0 200 200" xmlns="http://www.w3.org/2000/svg">
  <path fill="#F1C21B" d="M24.6,-41.6C34.3,-37,46.3,-35.3,50.9,-28.9C55.5,-22.5,52.6,-11.2,48,-2.6C43.5,6,37.3,12,31.5,16.2C25.7,20.5,20.2,22.9,15,32.5C9.8,42.1,4.9,58.7,-3.3,64.5C-11.5,70.2,-23.1,65.1,-30.7,56.9C-38.3,48.8,-41.9,37.5,-46.5,27.5C-51,17.5,-56.5,8.8,-58.9,-1.4C-61.3,-11.6,-60.7,-23.1,-53.2,-28C-45.7,-32.9,-31.3,-31,-21.3,-35.5C-11.3,-40,-5.6,-50.8,0.9,-52.3C7.4,-53.9,14.8,-46.2,24.6,-41.6Z" transform="translate(100 100)" />
</svg>
